<svg width="152" height="140" viewBox="0 0 152 140" fill="none" xmlns="http://www.w3.org/2000/svg">
<mask id="mask0" mask-type="alpha" maskUnits="userSpaceOnUse" x="0" y="0" width="152" height="140">
<path d="M0 0H152V140H0V0Z" fill="#F7F7F7"/>
</mask>
<g mask="url(#mask0)">
<mask id="mask1" mask-type="alpha" maskUnits="userSpaceOnUse" x="-75" y="-52" width="228" height="207">
<rect x="-75" y="-51.7856" width="227.871" height="206.061" fill="#C4C4C4"/>
</mask>
<g mask="url(#mask1)">
<path d="M62.1336 99.4299L56.0351 104.425L47.9601 111.466C46.8259 112.454 45.5838 113.312 44.2573 114.022L39.8296 116.393L34.1669 118.649C31.7274 119.62 29.5296 121.113 27.727 123.023L26.5269 124.294C23.886 127.092 20.2089 128.677 16.3617 128.677C11.9825 128.677 7.85639 130.729 5.21411 134.222L4.1979 135.565C2.5856 137.696 0.503265 139.426 -1.88701 140.62L-6.20149 142.777L-26.457 153.97H152.385V-1.29883L148.456 9.14103C147.532 11.5991 146.132 13.8509 144.337 15.768L140.923 19.4137C138.707 21.7801 137.099 24.6497 136.239 27.7753L135.785 29.426C135.018 32.21 133.658 34.795 131.797 37.0033L123.04 47.399L118.566 54.1629C117.24 56.1676 115.362 57.7455 113.159 58.706C109.866 60.1417 107.354 62.9306 106.269 66.3556L105.733 68.0473C105.256 69.5533 104.563 70.9822 103.676 72.2895L95.8942 83.759C94.1751 86.2928 91.8972 88.3981 89.2359 89.9125L86.892 91.2464C84.9217 92.3677 82.775 93.1458 80.5438 93.5475L71.2634 95.2183C67.9112 95.8218 64.7686 97.2715 62.1336 99.4299Z" fill="url(#paint0_linear)"/>
<path d="M70.9819 101.46L57.4339 110.432L49.1163 116.783C48.2037 117.479 47.2328 118.096 46.2143 118.627L44.2223 119.664C41.8685 120.889 39.254 121.529 36.6003 121.529C34.0526 121.529 31.5394 122.119 29.2577 123.252L24.814 125.459L15.3492 129.653C12.6495 130.85 10.2481 132.629 8.31765 134.864L6.62244 136.826C4.67189 139.084 2.24088 140.877 -0.492443 142.073L-4.21353 143.702L-24.2773 153.412H152.871V30.8455L144.553 40.2225C143.269 41.67 142.202 43.2961 141.385 45.05L140.454 47.0489C138.967 50.241 136.59 52.9356 133.607 54.8082C130.583 56.7072 128.182 59.4506 126.7 62.6994L123.804 69.0477L118.637 77.3707L116.998 79.4564C115.205 81.7377 112.938 83.6017 110.353 84.919L108.097 86.0684C105.893 87.1915 103.968 88.7934 102.463 90.7566C99.3231 94.8521 94.4564 97.2534 89.2959 97.2534H87.4649C86.3935 97.2534 85.3239 97.3395 84.2664 97.5108L78.8261 98.3922C76.0233 98.8463 73.3492 99.892 70.9819 101.46Z" fill="url(#paint1_linear)"/>
<path d="M-24.2773 153.171L-4.21353 143.46L-0.492447 141.832C2.24088 140.635 4.67189 138.843 6.62244 136.585L8.31765 134.622C10.2481 132.388 12.6495 130.609 15.3492 129.412L24.814 125.218L29.2576 123.011C31.5394 121.877 34.0526 121.288 36.6003 121.288V121.288C39.254 121.288 41.8685 120.648 44.2223 119.422L46.2143 118.385C47.2328 117.855 48.2037 117.238 49.1163 116.541L57.4339 110.19L70.9819 101.218C73.3492 99.6508 76.0233 98.6051 78.8261 98.151L84.2664 97.2696C85.3239 97.0983 86.3935 97.0122 87.4648 97.0122H89.2959C94.4564 97.0122 99.3231 94.6109 102.463 90.5154V90.5154C103.968 88.5521 105.893 86.9503 108.097 85.8272L110.353 84.6778C112.938 83.3605 115.205 81.4965 116.998 79.2152L118.637 77.1295L123.804 68.8065L126.7 62.4582C128.182 59.2094 130.583 56.466 133.607 54.567V54.567C136.59 52.6944 138.967 49.9998 140.454 46.8076L141.385 44.8088C142.202 43.0549 143.269 41.4288 144.553 39.9813L152.871 30.6042" stroke="#99F3FF" stroke-width="2"/>
<g filter="url(#filter0_d)">
<path d="M68.4361 117.239L64.6619 121.167C63.0155 122.88 61.077 124.287 58.9371 125.32L55.3887 127.034C54.2589 127.579 53.0804 128.017 51.8686 128.342L43.8653 130.487L30.2337 132.769L21.9999 135.236C19.3797 136.021 16.9483 137.336 14.8562 139.098L10.9332 142.402C9.64642 143.486 8.22803 144.403 6.71165 145.131L-1.52973 149.092C-3.31169 149.948 -5.21076 150.535 -7.165 150.834L-24.2812 153.455H152.868V54.5022L141.722 66.3528C140.18 67.9924 138.994 69.934 138.241 72.0549C137.296 74.7125 135.678 77.0791 133.543 78.9229L132.614 79.7262C131.695 80.5201 130.67 81.1832 129.57 81.6966L127.931 82.461C125.561 83.5669 123.776 85.6343 123.029 88.1411C122.294 90.6071 120.554 92.6497 118.237 93.7686L116.185 94.7597C114.345 95.6485 112.716 96.9209 111.408 98.4915L111.054 98.9172C110.116 100.044 109.035 101.043 107.839 101.89L105.189 103.767C103.92 104.666 102.55 105.414 101.108 105.995L91.9815 109.675C89.4294 110.704 86.6924 111.195 83.9418 111.118L83.4193 111.103C77.7833 110.945 72.3424 113.173 68.4361 117.239Z" fill="url(#paint2_linear)"/>
</g>
<path d="M-27.0234 154.275L-8.19056 151.448C-6.20519 151.15 -4.27602 150.554 -2.46791 149.682L6.41299 145.396C8.00451 144.628 9.48723 143.653 10.8224 142.495L14.6445 139.182C16.7178 137.384 19.1387 136.032 21.7568 135.211L28.5871 133.067C29.6515 132.733 30.742 132.489 31.8471 132.336L42.0818 130.927L51.328 128.596C52.7434 128.239 54.1155 127.729 55.4198 127.073L59.2938 125.126C61.3649 124.086 63.2393 122.693 64.8334 121.01L68.4788 117.162C72.3951 113.027 77.9174 110.803 83.6059 111.069V111.069C86.3655 111.198 89.1212 110.742 91.6918 109.729L100.519 106.254C101.742 105.773 102.915 105.172 104.02 104.46L106.852 102.636C108.301 101.704 109.598 100.554 110.698 99.2284L110.889 98.9972C112.246 97.3623 113.925 96.0255 115.823 95.0707L118.533 93.7071C120.678 92.6277 122.27 90.6947 122.917 88.3821V88.3821C123.621 85.8699 125.434 83.8172 127.84 82.8091L128.946 82.3456C129.901 81.9455 130.795 81.4128 131.601 80.7632L133.17 79.499C135.5 77.6221 137.23 75.1054 138.148 72.2584V72.2584C138.831 70.1409 139.966 68.1973 141.475 66.562L152.79 54.2979" stroke="#55A4FF" stroke-width="2"/>
<path d="M-11.5665 150.761L-26.7461 153.452H152.825V78.1123L145.391 87.6408C143.893 89.5604 142.635 91.6552 141.643 93.8789L140.857 95.6422C138.957 99.9031 136.09 103.662 132.483 106.621L129.894 108.745L122.607 113.618C117.672 116.918 111.868 118.68 105.931 118.68H98.8301C93.7835 118.68 88.8185 119.953 84.3945 122.381L76.2491 126.852C73.6209 128.295 70.7912 129.336 67.8543 129.939L55.3828 132.503C53.2803 132.935 51.2303 133.592 49.2679 134.462L37.2422 139.791L23.4885 145.097C21.5741 145.836 19.589 146.376 17.5644 146.709L3.00747 149.105L-11.5665 150.761Z" fill="url(#paint3_linear)"/>
<path d="M-26.2969 153.504L-11.6018 150.916L2.77039 149.105L16.9617 146.936C19.2279 146.59 21.447 145.985 23.5754 145.133L40.8001 138.239L49.5496 134.461C51.3024 133.704 53.1233 133.117 54.9878 132.706L59.936 131.616L72.6933 129.132L84.2628 122.578C88.7725 120.023 93.8673 118.68 99.0505 118.68H106.074C111.773 118.68 117.355 117.056 122.166 113.999L129.455 109.366L132.044 107.242C135.651 104.283 138.519 100.524 140.418 96.263L141.322 94.2359C142.236 92.1863 143.377 90.2457 144.723 88.4505L152.749 77.75" stroke="#7190FF" stroke-width="2"/>
</g>
</g>
<defs>
<filter id="filter0_d" x="-54.2812" y="20.5022" width="237.149" height="158.953" filterUnits="userSpaceOnUse" color-interpolation-filters="sRGB">
<feFlood flood-opacity="0" result="BackgroundImageFix"/>
<feColorMatrix in="SourceAlpha" type="matrix" values="0 0 0 0 0 0 0 0 0 0 0 0 0 0 0 0 0 0 127 0"/>
<feOffset dy="-4"/>
<feGaussianBlur stdDeviation="15"/>
<feColorMatrix type="matrix" values="0 0 0 0 0 0 0 0 0 0 0 0 0 0 0 0 0 0 0.15 0"/>
<feBlend mode="normal" in2="BackgroundImageFix" result="effect1_dropShadow"/>
<feBlend mode="normal" in="SourceGraphic" in2="effect1_dropShadow" result="shape"/>
</filter>
<linearGradient id="paint0_linear" x1="110.812" y1="44.1321" x2="123.487" y2="132.626" gradientUnits="userSpaceOnUse">
<stop stop-color="#CDFFFC"/>
<stop offset="1" stop-color="white"/>
</linearGradient>
<linearGradient id="paint1_linear" x1="111.693" y1="58.1264" x2="121.368" y2="135.257" gradientUnits="userSpaceOnUse">
<stop stop-color="#44E9FF"/>
<stop offset="1" stop-color="white"/>
</linearGradient>
<linearGradient id="paint2_linear" x1="111.689" y1="74.5737" x2="116.118" y2="195.356" gradientUnits="userSpaceOnUse">
<stop stop-color="#2388FF"/>
<stop offset="1" stop-color="white"/>
</linearGradient>
<linearGradient id="paint3_linear" x1="64.0891" y1="85.5635" x2="94.297" y2="176.257" gradientUnits="userSpaceOnUse">
<stop stop-color="#0038FF"/>
<stop offset="1" stop-color="white"/>
</linearGradient>
</defs>
</svg>
