<svg width="44" height="20" viewBox="0 0 44 20" fill="none" xmlns="http://www.w3.org/2000/svg">
<path fill-rule="evenodd" clip-rule="evenodd" d="M22.0007 7.65889C19.8367 7.65889 18.0818 9.45061 18.0818 11.6601C18.0818 13.8714 19.8367 15.6632 22.0007 15.6632C24.1647 15.6632 25.9215 13.8714 25.9215 11.6601C25.9215 9.45061 24.1666 7.65889 22.0007 7.65889ZM6.64425 2.78334C8.60179 3.09172 10.0757 4.83273 10.0757 6.86454V7.19634H11.7828C12.2378 5.53733 13.7346 4.36039 15.436 4.36039H28.5672C30.2686 4.36039 31.7654 5.53733 32.2203 7.19634H33.9275V6.86454C33.9275 4.82883 35.3994 3.09172 37.3589 2.78334C37.0645 2.62524 36.8294 2.36565 36.6993 2.04944C36.2157 2.30122 35.4988 2.45931 34.6979 2.45931C33.2411 2.45931 32.0617 1.93232 32.0617 1.28237C32.0617 0.630468 33.2431 0.103479 34.6979 0.103479C35.5944 0.103479 36.3858 0.302563 36.8619 0.608983C37.1257 0.240096 37.55 0 38.0318 0C38.5116 0 38.9379 0.240071 39.1998 0.608983C39.6758 0.304502 40.4672 0.103479 41.3638 0.103479C42.8205 0.103479 44 0.630468 44 1.28237C44 1.93232 42.8205 2.45931 41.3638 2.45931C40.5628 2.45931 39.8459 2.30122 39.3623 2.04944C39.2285 2.37539 38.9819 2.64084 38.6742 2.79698C40.5878 3.14439 42.0138 4.86586 42.0138 6.86254V9.53261C42.0138 14.8435 33.9277 15.0913 33.9277 9.53261V9.20081H32.2378C31.8402 10.7603 30.5154 11.9255 28.9364 12.0836V16.0867C28.9364 18.2395 27.2121 20 25.1054 20H18.8946C16.7879 20 15.0636 18.2395 15.0636 16.0867V12.0836C13.4865 11.9255 12.1617 10.7583 11.7622 9.20081H10.0723V9.53261C10.0723 14.9314 1.98617 14.9349 1.98617 9.53261V6.86254C1.98617 4.86196 3.40843 3.14634 5.32584 2.79893C5.01806 2.64278 4.77146 2.37734 4.63767 2.04944C4.15402 2.30122 3.43715 2.45931 2.63617 2.45931C1.17947 2.45931 0 1.93232 0 1.28237C0 0.630468 1.17952 0.103479 2.63617 0.103479C3.53273 0.103479 4.32416 0.302563 4.80019 0.608983C5.064 0.240096 5.48836 0 5.96821 0C6.44995 0 6.87435 0.240071 7.13623 0.608983C7.61223 0.304502 8.40364 0.103479 9.30024 0.103479C10.755 0.103479 11.9364 0.630468 11.9364 1.28237C11.9364 1.93232 10.755 2.45931 9.30024 2.45931C8.49926 2.45931 7.78236 2.29927 7.29875 2.04944C7.16876 2.36368 6.93553 2.62519 6.6392 2.78334H6.64425ZM28.5673 6.36683H15.4361C13.014 6.36683 13.0427 10.0987 15.4361 10.0987H17.0323V16.0906C17.0323 17.1387 17.8715 17.9955 18.8981 17.9955H25.1089C26.1355 17.9955 26.9747 17.1387 26.9747 16.0906V10.0987H28.5709C30.9739 10.0987 30.9739 6.36683 28.5709 6.36683H28.5673ZM35.8929 6.86453V9.5346C35.8929 12.3881 40.0469 12.2632 40.0469 9.5346V6.86453C40.0469 4.13595 35.8929 3.97981 35.8929 6.86453ZM3.95458 6.86453V9.5346C3.95458 12.3491 8.10863 12.3003 8.10863 9.5346V6.86453C8.10863 4.07545 3.95458 4.07934 3.95458 6.86453ZM22.2625 9.73951C22.987 9.78635 23.0578 8.6641 22.3351 8.61528C20.196 8.46695 18.7145 10.5573 19.2746 12.6262C19.4677 13.3386 20.5286 13.04 20.3356 12.3276C19.9838 11.0296 20.8613 9.6419 22.2606 9.73948L22.2625 9.73951Z" fill="#FF1F00"/>
</svg>
