<svg width="26" height="29" viewBox="0 0 26 29" fill="none" xmlns="http://www.w3.org/2000/svg">
<path d="M13.0681 6.99538C13.7643 6.99538 14.265 6.44279 14.265 5.66414V3.6296L15.6695 4.42081C16.2435 4.72222 16.9396 4.60919 17.2572 4.08172C17.6358 3.47889 17.477 2.67513 16.732 2.26068L14.4238 0.916884C13.4345 0.364294 12.7017 0.364294 11.7247 0.916884L9.40421 2.26068C8.67143 2.67513 8.51267 3.47889 8.89127 4.08172C9.20881 4.60919 9.89273 4.72222 10.479 4.42081L11.8712 3.61704V5.66414C11.8712 6.44279 12.3842 6.99538 13.0681 6.99538ZM1.72224 13.6139C2.40617 13.6139 2.88247 13.0488 2.88247 12.2827V10.1853L4.93426 11.391C5.55712 11.7426 6.26547 11.5542 6.64408 10.9514C6.99825 10.3486 6.74178 9.59506 6.05785 9.20574L4.17705 8.11312L5.97236 7.07073C6.6685 6.65629 6.88834 5.8274 6.46088 5.23714C6.04564 4.68455 5.31286 4.60919 4.65336 4.98596L2.18633 6.41767C1.1238 7.03305 0.574219 7.8745 0.574219 9.26853V12.2827C0.574219 13.0488 1.06274 13.6139 1.72224 13.6139ZM24.414 13.6139C25.0735 13.6139 25.5742 13.0488 25.5742 12.2827V9.26853C25.5742 7.76147 25.1468 7.09585 23.9621 6.41767L21.4829 4.98596C20.8356 4.60919 20.1028 4.68455 19.6876 5.23714C19.2601 5.8274 19.4677 6.65629 20.1761 7.07073L21.9714 8.11312L20.0906 9.20574C19.4067 9.59506 19.138 10.3486 19.5044 10.9514C19.883 11.5542 20.5913 11.7426 21.202 11.391L23.266 10.1853V12.2827C23.266 13.0488 23.7423 13.6139 24.414 13.6139ZM13.0681 19.2654C13.7643 19.2654 14.265 18.7128 14.265 17.9342V15.3973L16.5122 14.0911C17.1839 13.7018 17.4282 12.9357 17.0618 12.3329C16.6954 11.7301 16.0114 11.5291 15.3642 11.9059L13.0681 13.2246L10.7721 11.9059C10.137 11.5291 9.45307 11.7301 9.08668 12.3329C8.72029 12.9357 8.96455 13.7018 9.63626 14.0911L11.8712 15.3973V17.9342C11.8712 18.7128 12.3842 19.2654 13.0681 19.2654ZM3.8473 23.5103C4.53123 23.8996 5.30065 23.7238 5.61819 23.1084C5.92351 22.5181 5.71589 21.8148 5.19073 21.4506L4.1282 20.8101L5.78917 19.8431C6.46088 19.4538 6.70514 18.7002 6.33875 18.0974C5.98458 17.4946 5.28843 17.2811 4.64115 17.6579L2.89469 18.6751L2.85805 17.3439C2.82141 16.6406 2.3451 16.1257 1.72224 16.1257C1.05053 16.1257 0.574219 16.6908 0.574219 17.4695V19.4538C0.574219 21.2748 1.16044 21.953 2.36953 22.6563L3.8473 23.5103ZM22.3011 23.5103L23.7789 22.6563C24.988 21.953 25.5742 21.2748 25.5742 19.4538V17.4695C25.5742 16.6908 25.0979 16.1257 24.414 16.1257C23.8033 16.1257 23.327 16.6406 23.2782 17.3439L23.2537 18.6751L21.5073 17.6579C20.86 17.2811 20.1639 17.4946 19.7975 18.0974C19.4311 18.7002 19.6876 19.4538 20.3593 19.8431L22.008 20.8227L20.9577 21.4506C20.4325 21.8148 20.2249 22.5181 20.5303 23.1084C20.8478 23.7238 21.605 23.8996 22.3011 23.5103ZM12.0056 28.1822C12.7384 28.6092 13.4101 28.6092 14.1429 28.1822L17.5503 26.223C18.222 25.8462 18.4052 25.1304 18.0877 24.5024C17.7701 23.8871 17.0129 23.7112 16.3656 24.1006L14.265 25.3188V22.9828C14.265 22.2167 13.7643 21.6516 13.0681 21.6516C12.3842 21.6516 11.8712 22.2167 11.8712 22.9828V25.3188L9.78282 24.1006C9.13553 23.7112 8.37832 23.8871 8.06078 24.5024C7.74325 25.1304 7.92644 25.8462 8.59816 26.223L12.0056 28.1822Z" fill="#0038FF"/>
</svg>
