<svg width="37" height="23" viewBox="0 0 37 23" fill="none" xmlns="http://www.w3.org/2000/svg">
<path d="M0.34375 18.1932C0.34375 21.098 2.30895 22.9194 5.14621 22.9194C6.7675 22.9194 8.22911 22.2409 9.33454 21.0147L11.5208 18.5504C11.8279 18.1932 12.1472 18.0385 12.528 18.0385H24.1595C24.5403 18.0385 24.8596 18.1932 25.1667 18.5504L27.353 21.0147C28.4584 22.2409 29.92 22.9194 31.5413 22.9194C34.3786 22.9194 36.3438 21.098 36.3438 18.1932C36.3438 16.9432 36.0613 15.5266 35.5822 13.9551C34.8207 11.4909 33.5065 8.16943 32.2537 5.60991C31.1851 3.44324 30.6078 2.38372 27.9057 1.78848C25.5352 1.26467 22.2926 0.919434 18.3499 0.919434C14.4072 0.919434 11.1523 1.26467 8.78183 1.78848C6.09196 2.38372 5.5024 3.44324 4.43382 5.60991C3.18101 8.16943 1.86678 11.4909 1.10526 13.9551C0.626247 15.5266 0.34375 16.9432 0.34375 18.1932ZM2.65286 18.1694C2.65286 17.4432 2.82481 16.5742 3.20557 15.3123C4.0285 12.5623 5.45327 9.01467 6.68152 6.39562C7.27108 5.14562 7.61499 4.44324 9.06432 4.10991C11.3243 3.59801 14.4809 3.25277 18.3499 3.25277C22.2066 3.25277 25.3755 3.59801 27.6355 4.10991C29.0848 4.44324 29.4041 5.14562 30.006 6.39562C31.2588 9.01467 32.6344 12.5623 33.4942 15.3123C33.875 16.5742 34.0346 17.4432 34.0346 18.1694C34.0346 19.7051 32.9292 20.6456 31.4799 20.6456C30.5955 20.6456 29.7235 20.1932 29.0234 19.4075L26.5546 16.6932C25.9528 16.0147 25.4615 15.6932 24.4052 15.6932H12.2946C11.226 15.6932 10.7347 16.0147 10.1329 16.6932L7.6764 19.4075C6.9763 20.1932 6.09196 20.6456 5.2199 20.6456C3.75828 20.6456 2.65286 19.7051 2.65286 18.1694ZM8.31509 9.59801C8.31509 10.2647 8.74498 10.6813 9.4328 10.6813H11.4963V12.6218C11.4963 13.2885 11.9139 13.7171 12.5894 13.7171C13.2527 13.7171 13.6703 13.2885 13.6703 12.6218V10.6813H15.6109C16.3601 10.6813 16.8146 10.2647 16.8146 9.59801C16.8146 8.95515 16.3601 8.53848 15.6109 8.53848H13.6703V6.60991C13.6703 5.94324 13.2527 5.51467 12.5894 5.51467C11.9139 5.51467 11.4963 5.94324 11.4963 6.60991V8.53848H9.4328C8.74498 8.53848 8.31509 8.95515 8.31509 9.59801ZM26.0142 9.49086C27.0459 9.49086 27.832 8.72896 27.832 7.72896C27.832 6.72896 27.0459 5.95515 26.0142 5.95515C25.007 5.95515 24.1964 6.72896 24.1964 7.72896C24.1964 8.72896 25.007 9.49086 26.0142 9.49086ZM22.3663 13.0623C23.398 13.0623 24.1841 12.3004 24.1841 11.3123C24.1841 10.3123 23.398 9.53848 22.3663 9.53848C21.3468 9.53848 20.5485 10.3123 20.5485 11.3123C20.5485 12.3004 21.3468 13.0623 22.3663 13.0623Z" fill="#9E00FF"/>
</svg>
