<svg width="26" height="25" viewBox="0 0 26 25" fill="none" xmlns="http://www.w3.org/2000/svg">
<path fill-rule="evenodd" clip-rule="evenodd" d="M22.7403 15.8358H16.7962C16.4934 15.8358 16.2479 16.0812 16.2479 16.3841V22.2586C16.2479 22.5614 16.4934 22.8069 16.7962 22.8069H22.7403C23.0431 22.8069 23.2886 22.5614 23.2886 22.2586V16.3841C23.2886 16.0812 23.0431 15.8358 22.7403 15.8358ZM16.7962 13.6426C15.2821 13.6426 14.0547 14.87 14.0547 16.3841V22.2586C14.0547 23.7727 15.2821 25.0001 16.7962 25.0001H22.7403C24.2544 25.0001 25.4818 23.7727 25.4818 22.2586V16.3841C25.4818 14.87 24.2544 13.6426 22.7403 13.6426H16.7962Z" fill="#00DB58"/>
<path fill-rule="evenodd" clip-rule="evenodd" d="M22.7403 2.19319H16.7962C16.4934 2.19319 16.2479 2.43867 16.2479 2.74148V8.61605C16.2479 8.91886 16.4934 9.16435 16.7962 9.16435H22.7403C23.0431 9.16435 23.2886 8.91886 23.2886 8.61605V2.74148C23.2886 2.43867 23.0431 2.19319 22.7403 2.19319ZM16.7962 0C15.2821 0 14.0547 1.2274 14.0547 2.74148V8.61605C14.0547 10.1301 15.2821 11.3575 16.7962 11.3575H22.7403C24.2544 11.3575 25.4818 10.1301 25.4818 8.61605V2.74148C25.4818 1.2274 24.2544 0 22.7403 0H16.7962Z" fill="#00DB58"/>
<path fill-rule="evenodd" clip-rule="evenodd" d="M9.16606 15.8358H3.22195C2.91913 15.8358 2.67366 16.0812 2.67366 16.3841V22.2586C2.67366 22.5614 2.91914 22.8069 3.22196 22.8069H9.16606C9.46888 22.8069 9.71435 22.5614 9.71435 22.2586V16.3841C9.71435 16.0812 9.46887 15.8358 9.16606 15.8358ZM3.22195 13.6426C1.70787 13.6426 0.480469 14.87 0.480469 16.3841V22.2586C0.480469 23.7727 1.70788 25.0001 3.22196 25.0001H9.16606C10.6801 25.0001 11.9075 23.7727 11.9075 22.2586V16.3841C11.9075 14.87 10.6801 13.6426 9.16606 13.6426H3.22195Z" fill="#00DB58"/>
<path fill-rule="evenodd" clip-rule="evenodd" d="M9.16606 2.19319H3.22195C2.91913 2.19319 2.67366 2.43867 2.67366 2.74148V8.61605C2.67366 8.91886 2.91914 9.16435 3.22196 9.16435H9.16606C9.46888 9.16435 9.71435 8.91886 9.71435 8.61605V2.74148C9.71435 2.43867 9.46887 2.19319 9.16606 2.19319ZM3.22195 0C1.70787 0 0.480469 1.2274 0.480469 2.74148V8.61605C0.480469 10.1301 1.70788 11.3575 3.22196 11.3575H9.16606C10.6801 11.3575 11.9075 10.1301 11.9075 8.61605V2.74148C11.9075 1.2274 10.6801 0 9.16606 0H3.22195Z" fill="#00DB58"/>
<path fill-rule="evenodd" clip-rule="evenodd" d="M14.0526 6.73933H11.3164V4.54614H14.0526V6.73933Z" fill="#00DB58"/>
<path fill-rule="evenodd" clip-rule="evenodd" d="M18.7638 13.8011L18.7638 11.0815L20.957 11.0815L20.957 13.8011L18.7638 13.8011Z" fill="#00DB58"/>
<path fill-rule="evenodd" clip-rule="evenodd" d="M14.0526 20.3533H11.3164V18.1602H14.0526V20.3533Z" fill="#00DB58"/>
<path fill-rule="evenodd" clip-rule="evenodd" d="M5.15056 13.8011L5.15056 11.0815L7.34375 11.0815L7.34375 13.8011L5.15056 13.8011Z" fill="#00DB58"/>
</svg>
