<svg width="111" height="37" fill="none" xmlns="http://www.w3.org/2000/svg"><path d="M6.288 36.215h-.005a11.468 11.468 0 01-1.684-.146 5.046 5.046 0 01-1.416-.467 4.586 4.586 0 01-1.186-.86h0l-.005-.005a4.495 4.495 0 01-.864-1.18v-.001a4.86 4.86 0 01-.464-1.41h0a11.12 11.12 0 01-.15-1.685h0v-.009a42.742 42.742 0 01-.01-.495l-.003-.247v-.098L.5 29.607V7.904l.001-.076.004-.243C.508 7.397.51 7.19.514 7.1h0v-.008a11.08 11.08 0 01.149-1.681h0c.081-.493.238-.97.464-1.416v-.001c.222-.438.512-.837.861-1.182h0l.002-.002c.35-.35.752-.642 1.193-.868.445-.224.92-.38 1.412-.463.559-.091 1.124-.14 1.69-.147h0l.846-.012h96.736l.853.012h.001c.561.007 1.12.056 1.673.146.497.084.978.242 1.429.467a4.765 4.765 0 012.054 2.052c.222.442.376.915.456 1.403h0c.094.562.146 1.128.157 1.697.003.262.003.544.002.829l.001.01c.007.346.007.676.007 1.014v19.646c0 .342 0 .67-.007.998h0v.011c0 .306 0 .582-.004.866a11.464 11.464 0 01-.154 1.665l-.001.002a4.841 4.841 0 01-.46 1.42c-.224.434-.514.83-.862 1.173l-.004.004a4.58 4.58 0 01-1.187.865c-.449.227-.93.385-1.427.469-.556.09-1.119.14-1.683.146h-.006c-.272.007-.557.01-.833.01h-.001l-1.019.002h-.001l-95.723-.002c-.283 0-.559-.003-.84-.01z" fill="#fff" stroke="#DFDFDF"/><path d="M22.494 19.055a4.636 4.636 0 012.218-3.897 4.766 4.766 0 00-3.757-2.026c-1.58-.165-3.113.943-3.919.943-.82 0-2.06-.926-3.396-.9a5.013 5.013 0 00-4.21 2.561C7.608 18.88 8.966 23.5 10.71 26.04c.873 1.244 1.893 2.634 3.227 2.584 1.306-.054 1.793-.83 3.37-.83 1.56 0 2.018.83 3.38.799 1.4-.023 2.284-1.25 3.125-2.506a10.278 10.278 0 001.43-2.902 4.498 4.498 0 01-1.998-1.653 4.48 4.48 0 01-.75-2.477zM19.922 11.462a4.566 4.566 0 001.05-3.276 4.67 4.67 0 00-3.02 1.557 4.348 4.348 0 00-1.077 3.156 3.867 3.867 0 003.047-1.437zM38.998 25.475h-4.455l-1.07 3.15h-1.888l4.22-11.656h1.961l4.22 11.656h-1.919l-1.069-3.15zm-3.994-1.454h3.532l-1.741-5.113h-.049l-1.742 5.113zM51.101 24.375c0 2.642-1.417 4.338-3.556 4.338a2.896 2.896 0 01-2.682-1.487h-.04v4.21h-1.75v-11.31h1.694v1.413h.032a3.019 3.019 0 012.713-1.502c2.163 0 3.59 1.705 3.59 4.338zm-1.798 0c0-1.72-.892-2.851-2.252-2.851-1.337 0-2.236 1.155-2.236 2.851 0 1.713.9 2.86 2.236 2.86 1.36 0 2.252-1.123 2.252-2.86zM60.481 24.375c0 2.641-1.417 4.338-3.556 4.338a2.896 2.896 0 01-2.682-1.487h-.04v4.21h-1.75v-11.31h1.694v1.413h.032a3.019 3.019 0 012.714-1.502c2.163 0 3.588 1.705 3.588 4.338zm-1.798 0c0-1.72-.891-2.851-2.252-2.851-1.337 0-2.235 1.155-2.235 2.851 0 1.713.898 2.86 2.235 2.86 1.36 0 2.252-1.123 2.252-2.86zM66.681 25.377c.13 1.156 1.256 1.915 2.795 1.915 1.474 0 2.535-.76 2.535-1.802 0-.904-.64-1.446-2.155-1.817l-1.515-.364c-2.146-.517-3.143-1.518-3.143-3.143 0-2.011 1.758-3.393 4.254-3.393 2.47 0 4.163 1.382 4.22 3.393h-1.766c-.106-1.163-1.07-1.865-2.48-1.865-1.408 0-2.373.71-2.373 1.744 0 .824.616 1.31 2.123 1.68l1.288.316c2.398.565 3.395 1.526 3.395 3.231 0 2.18-1.742 3.547-4.513 3.547-2.592 0-4.343-1.334-4.456-3.442h1.791zM77.634 18.115v2.012h1.62v1.38h-1.62v4.686c0 .728.325 1.067 1.037 1.067a5.48 5.48 0 00.575-.04v1.373a4.81 4.81 0 01-.971.08c-1.726 0-2.399-.646-2.399-2.294v-4.871h-1.239v-1.381h1.24v-2.012h1.757zM80.194 24.376c0-2.674 1.58-4.355 4.042-4.355 2.47 0 4.043 1.68 4.043 4.355 0 2.681-1.564 4.354-4.043 4.354s-4.042-1.673-4.042-4.354zm6.302 0c0-1.835-.843-2.917-2.26-2.917-1.418 0-2.26 1.09-2.26 2.917 0 1.841.842 2.916 2.26 2.916 1.417 0 2.26-1.075 2.26-2.916zM89.72 20.126h1.67v1.446h.04a2.027 2.027 0 012.05-1.535c.201-.001.402.02.599.065v1.631a2.455 2.455 0 00-.786-.105 1.767 1.767 0 00-1.746 1.207c-.08.241-.106.496-.077.748v5.041h-1.75v-8.498zM102.144 26.128c-.235 1.543-1.742 2.602-3.67 2.602-2.478 0-4.017-1.656-4.017-4.314 0-2.666 1.547-4.395 3.944-4.395 2.358 0 3.841 1.616 3.841 4.192v.598h-6.02v.106a2.208 2.208 0 001.374 2.244c.291.12.605.174.92.163a1.933 1.933 0 001.967-1.196h1.661zm-5.913-2.536h4.261a2.043 2.043 0 00-1.267-2.004 2.056 2.056 0 00-.824-.153 2.163 2.163 0 00-2.006 1.329 2.147 2.147 0 00-.164.828zM34.785 8.194a2.491 2.491 0 011.983.768 2.477 2.477 0 01.66 2.015c0 1.79-.97 2.818-2.642 2.818h-2.03V8.194h2.03zm-1.156 4.809h1.06a1.77 1.77 0 001.792-1.241c.078-.25.098-.515.06-.774a1.76 1.76 0 00-1.09-1.876 1.775 1.775 0 00-.763-.127H33.63v4.018zM38.414 11.681A1.997 1.997 0 0139.6 9.66a2.013 2.013 0 012.718 1.199c.089.264.12.545.094.822a1.997 1.997 0 01-1.186 2.026 2.013 2.013 0 01-2.72-1.202 1.999 1.999 0 01-.092-.824zm3.137 0c0-.916-.413-1.452-1.137-1.452-.727 0-1.136.536-1.136 1.452 0 .924.409 1.456 1.136 1.456.724 0 1.137-.536 1.137-1.456zM47.726 13.795h-.868l-.876-3.113h-.066l-.872 3.113h-.86l-1.168-4.227h.848l.76 3.226h.062l.872-3.226h.802l.872 3.226h.066l.755-3.226h.837l-1.164 4.227zM49.873 9.568h.805v.672h.062a1.266 1.266 0 011.265-.753 1.382 1.382 0 011.42.963c.061.197.078.405.047.609v2.736h-.836v-2.527c0-.68-.296-1.017-.915-1.017a.975.975 0 00-.967.66.967.967 0 00-.045.411v2.473h-.837V9.568zM54.805 7.92h.837v5.877h-.837V7.92zM56.805 11.681a1.999 1.999 0 011.187-2.021 2.013 2.013 0 012.718 1.199c.088.264.12.545.093.822a1.997 1.997 0 01-1.185 2.026 2.014 2.014 0 01-2.301-.486 2.003 2.003 0 01-.512-1.54zm3.137 0c0-.916-.412-1.451-1.137-1.451-.727 0-1.136.535-1.136 1.451 0 .924.41 1.456 1.136 1.456.725 0 1.137-.536 1.137-1.456zM61.684 12.601c0-.76.568-1.2 1.577-1.262l1.148-.066v-.364c0-.447-.296-.699-.868-.699-.467 0-.79.171-.884.47h-.81c.086-.726.77-1.192 1.733-1.192 1.062 0 1.662.528 1.662 1.42v2.889h-.806v-.594h-.066a1.425 1.425 0 01-1.273.663 1.283 1.283 0 01-1.301-.747 1.273 1.273 0 01-.112-.518zm2.725-.36v-.354l-1.036.066c-.583.039-.848.237-.848.61 0 .38.331.601.786.601a1 1 0 001.098-.924zM66.34 11.682c0-1.336.69-2.182 1.76-2.182a1.4 1.4 0 011.3.741h.063V7.92h.836v5.877h-.801v-.668h-.067a1.469 1.469 0 01-1.33.738c-1.079 0-1.76-.847-1.76-2.185zm.865 0c0 .896.424 1.436 1.133 1.436.705 0 1.14-.548 1.14-1.433 0-.88-.44-1.436-1.14-1.436-.705 0-1.133.543-1.133 1.433zM73.76 11.681a1.999 1.999 0 011.187-2.021 2.013 2.013 0 012.718 1.199c.088.264.12.545.093.822a1.997 1.997 0 01-1.185 2.026 2.012 2.012 0 01-2.72-1.202 1.999 1.999 0 01-.093-.824zm3.138 0c0-.916-.413-1.452-1.137-1.452-.728 0-1.137.536-1.137 1.452 0 .924.41 1.456 1.137 1.456.724 0 1.137-.536 1.137-1.456zM78.88 9.568h.806v.672h.062a1.266 1.266 0 011.265-.753 1.382 1.382 0 011.42.963c.061.197.078.405.047.609v2.736h-.836v-2.527c0-.68-.296-1.017-.915-1.017a.975.975 0 00-.967.66.967.967 0 00-.045.411v2.473h-.837V9.568zM87.207 8.516v1.071h.919v.703h-.919v2.173c0 .443.183.637.6.637.106 0 .213-.007.319-.02v.696c-.15.026-.303.04-.455.042-.93 0-1.301-.326-1.301-1.141V10.29h-.673v-.703h.673V8.516h.837zM89.268 7.92h.83v2.33h.066a1.302 1.302 0 011.292-.758 1.4 1.4 0 011.407.97c.062.196.08.403.053.606v2.729h-.837v-2.523c0-.675-.316-1.017-.907-1.017a.992.992 0 00-1.012.648.985.985 0 00-.055.423v2.469h-.837V7.92zM97.794 12.655a1.717 1.717 0 01-1.837 1.223 1.93 1.93 0 01-1.892-1.358 1.913 1.913 0 01-.066-.823 1.943 1.943 0 01.472-1.55 1.954 1.954 0 011.482-.659c1.18 0 1.891.804 1.891 2.131v.291h-2.993v.047a1.115 1.115 0 001.129 1.21 1.018 1.018 0 001.008-.511h.806zm-2.943-1.362h2.141a1.018 1.018 0 00-.627-1.017 1.026 1.026 0 00-.416-.078 1.087 1.087 0 00-1.018.674 1.078 1.078 0 00-.08.421z" fill="#000"/></svg>
