<svg width="325" height="233" fill="none" xmlns="http://www.w3.org/2000/svg"><mask id="a" maskUnits="userSpaceOnUse" x="59" y="0" width="266" height="233"><path fill="#C4C4C4" d="M59 0h266v233H59z"/></mask><g mask="url(#a)"><path opacity=".4" d="M139 117.192C139 83.397 166.397 56 200.192 56c33.796 0 61.193 27.397 61.193 61.192 0 33.796-27.397 61.193-61.193 61.193-33.795 0-61.192-27.397-61.192-61.193z" fill="#20FFF6"/><rect opacity=".2" x="123" y="40" width="154" height="154" rx="77" stroke="#00FFF5" stroke-width="2"/><rect opacity=".2" x="109" y="26" width="183" height="183" rx="91.5" stroke="#00FFF5" stroke-width="2"/><rect opacity=".1" x="91" y="8" width="218" height="218" rx="109" stroke="#00FFF5" stroke-width="2"/><path opacity=".7" d="M155 117.5c0-25.129 20.371-45.5 45.5-45.5S246 92.371 246 117.5 225.629 163 200.5 163 155 142.629 155 117.5z" fill="#51BBF9"/><rect opacity=".4" x="163" y="80" width="74" height="74" rx="37" fill="#377FF5"/></g><g filter="url(#filter0_i)"><circle cx="200" cy="117" r="30" fill="#0147F6"/></g><mask id="b" maskUnits="userSpaceOnUse" x="178" y="94" width="23" height="45"><path d="M200.664 116.365l-22.055 22.051V94.314l22.055 22.051z" fill="#C4C4C4"/></mask><g mask="url(#b)"><circle cx="200.592" cy="116.365" r="19.652" fill="#69ECE7"/><circle cx="200.593" cy="116.365" r="16.425" fill="#51BBF9"/><circle cx="200.593" cy="116.365" r="12.982" fill="#377FF5"/><circle cx="200.592" cy="116.365" r="9.324" fill="#1560FA"/><circle cx="200.592" cy="116.365" r="19.652" fill="#69ECE7"/><circle cx="200.593" cy="116.365" r="16.425" fill="#51BBF9"/><circle cx="200.593" cy="116.365" r="12.982" fill="#377FF5"/><circle cx="200.592" cy="116.365" r="9.324" fill="#1560FA"/></g><mask id="c" maskUnits="userSpaceOnUse" x="200" y="94" width="23" height="45"><path d="M200.596 116.365l22.055 22.051V94.314l-22.055 22.051z" fill="#C4C4C4"/></mask><g mask="url(#c)"><circle r="19.652" transform="matrix(-1 0 0 1 200.666 116.365)" fill="#69ECE7"/><circle r="16.425" transform="matrix(-1 0 0 1 200.667 116.365)" fill="#51BBF9"/><circle r="12.982" transform="matrix(-1 0 0 1 200.666 116.365)" fill="#377FF5"/><circle r="9.324" transform="matrix(-1 0 0 1 200.666 116.365)" fill="#1560FA"/><circle r="19.652" transform="matrix(-1 0 0 1 200.666 116.365)" fill="#69ECE7"/><circle r="16.425" transform="matrix(-1 0 0 1 200.667 116.365)" fill="#51BBF9"/><circle r="12.982" transform="matrix(-1 0 0 1 200.666 116.365)" fill="#377FF5"/><circle r="9.324" transform="matrix(-1 0 0 1 200.666 116.365)" fill="#1560FA"/></g><g filter="url(#filter1_d)"><path fill-rule="evenodd" clip-rule="evenodd" d="M32.204 125.238h83.1V88.012h-83.1v37.226z" fill="#BF7A41"/><path d="M95.61 84.63c0-3.312 2.761-5.96 6.02-5.96l34.234.33c3.315 0 5.966 2.76 5.966 6.016 0 3.31-2.762 5.96-6.021 5.96l-34.234-.332c-3.314 0-5.966-2.704-5.966-6.015zM87.885 108.417l12.605.116c0-3.496-9.896-6.409-6.579-6.351l56.833.466c3.317 0 5.971 2.914 5.971 6.351 0 3.496-2.764 6.293-6.026 6.293l-56.833-.466c-3.317-.059-5.97-2.914-5.97-6.409z" fill="#BF7A41"/><path d="M81.329 96.398l12.605.117c0-3.496-9.897-6.41-6.58-6.35l56.833.465c3.318 0 5.971 2.913 5.971 6.351 0 3.496-2.764 6.293-6.026 6.293l-56.833-.466c-3.317-.059-5.97-2.914-5.97-6.41zM105.068 121.254c0-3.716 1.101-6.69 4.708-6.69l69.62.496c3.669 0 6.604 3.097 6.604 6.752 0 3.717-3.057 6.69-6.665 6.69l-69.62-.495c-3.669-.062-4.708-3.098-4.647-6.753z" fill="#BF7A41"/><path d="M106.327 131.678c-1.941-3.636-2.347-7.158-.993-7.881l18.555-9.439c1.377-.735 4.097 1.707 6.006 5.282 1.918 3.648 2.346 7.157.969 7.892l-18.555 9.44c-1.354.723-4.064-1.646-5.982-5.294z" fill="#BF7A41"/><path d="M117.053 140.396c-3.863.001-24.143.966-28.971-1.931-4.829-2.897-8.692-6.33-13.52-13.52-3.014-4.487-1.335-11.715-1.299-18.331.13-17.233 13.17-28.036 28.291-27.888 6.326.05 14.644.099 20.493.148" fill="#BF7A41"/><path d="M111.287 78.725s23.818 5.45 22.671 34.513c-.273 6.124-3.988 14.999-3.988 14.999l-21.414-.156-.219 10.38-35.07-22.317L98.23 87.237l13.056-8.512z" fill="#BF7A41"/><path d="M85.238 128.576c2.003-3.131 4.533-5.042 7.572-3.098l38.931 23.973c3.09 1.977 3.893 6.168 1.923 9.247-2.004 3.131-6.181 3.987-9.22 2.043l-38.931-23.973c-3.057-2.029-2.297-5.146-.275-8.192z" fill="#BF7A41"/><path d="M37.973 141.418a7 7 0 01-7-7V79.612h32.834v61.806H37.973z" fill="#B7B7B7"/><path fill-rule="evenodd" clip-rule="evenodd" d="M47.808 130.977a4.426 4.426 0 00-2.343-5.805 4.427 4.427 0 10-3.463 8.149 4.427 4.427 0 005.806-2.344z" fill="#474747"/></g><defs><filter id="filter0_i" x="170" y="87" width="60" height="60" filterUnits="userSpaceOnUse" color-interpolation-filters="sRGB"><feFlood flood-opacity="0" result="BackgroundImageFix"/><feBlend in="SourceGraphic" in2="BackgroundImageFix" result="shape"/><feColorMatrix in="SourceAlpha" values="0 0 0 0 0 0 0 0 0 0 0 0 0 0 0 0 0 0 127 0" result="hardAlpha"/><feOffset dy="7"/><feComposite in2="hardAlpha" operator="arithmetic" k2="-1" k3="1"/><feColorMatrix values="0 0 0 0 0 0 0 0 0 0 0 0 0 0 0 0 0 0 0.25 0"/><feBlend in2="shape" result="effect1_innerShadow"/></filter><filter id="filter1_d" x=".59" y="34.462" width="204.411" height="152.326" filterUnits="userSpaceOnUse" color-interpolation-filters="sRGB"><feFlood flood-opacity="0" result="BackgroundImageFix"/><feColorMatrix in="SourceAlpha" values="0 0 0 0 0 0 0 0 0 0 0 0 0 0 0 0 0 0 127 0"/><feOffset dx="3" dy="4"/><feGaussianBlur stdDeviation="8"/><feColorMatrix values="0 0 0 0 0 0 0 0 0 0 0 0 0 0 0 0 0 0 0.1 0"/><feBlend in2="BackgroundImageFix" result="effect1_dropShadow"/><feBlend in="SourceGraphic" in2="effect1_dropShadow" result="shape"/></filter></defs></svg>