<svg width="275" height="61" fill="none" xmlns="http://www.w3.org/2000/svg"><path d="M15.332 37.724l-3.094 10.153H0L16.34 0h15.264l16.34 47.877H35.707L32.68 37.724H15.331zm13.515-12.777c-1.927-6.365-3.541-12.17-4.841-17.416h-.135a356.57 356.57 0 01-4.707 17.416l-.941 3.228h11.633l-1.009-3.228zM60.074 48.752c-3.9 0-6.97-1.189-9.212-3.564-2.197-2.421-3.295-5.918-3.295-10.49v-20.98h11.162v19.77c0 2.196.426 3.855 1.278 4.975.852 1.076 2.084 1.614 3.698 1.614 1.794 0 3.183-.717 4.17-2.152 1.03-1.479 1.546-3.653 1.546-6.522V13.718h11.162v34.16H70.161v-4.102h-.135a12.634 12.634 0 01-4.303 3.698c-1.66.852-3.542 1.278-5.649 1.278zM103.271 39.606c.897 0 1.726-.112 2.488-.336v8.406c-.762.224-1.681.403-2.757.538a23.545 23.545 0 01-2.891.201c-4.304 0-7.442-.896-9.414-2.69-1.928-1.793-2.892-4.684-2.892-8.674V21.854h-5.312v-8.136h5.312V4.505h11.163v9.213h6.455v8.136h-6.455v12.642c0 1.838.336 3.16 1.008 3.967.673.762 1.771 1.143 3.295 1.143zM124.265 12.642c3.676 0 6.882.74 9.616 2.219 2.78 1.48 4.909 3.586 6.388 6.32 1.525 2.735 2.287 5.94 2.287 9.616 0 3.677-.762 6.882-2.287 9.616-1.479 2.735-3.608 4.842-6.388 6.321-2.734 1.48-5.94 2.22-9.616 2.22-3.676 0-6.903-.74-9.683-2.22-2.734-1.48-4.864-3.586-6.388-6.32-1.479-2.735-2.219-5.94-2.219-9.617 0-3.675.74-6.88 2.219-9.615 1.524-2.735 3.654-4.842 6.388-6.321 2.78-1.48 6.007-2.22 9.683-2.22zm0 8.472c-2.062 0-3.676.875-4.841 2.623-1.121 1.703-1.681 4.057-1.681 7.06 0 3.004.56 5.38 1.681 7.128 1.165 1.704 2.779 2.556 4.841 2.556 2.063 0 3.654-.852 4.775-2.556 1.165-1.748 1.748-4.124 1.748-7.127 0-3.004-.583-5.358-1.748-7.061-1.121-1.748-2.712-2.623-4.775-2.623zM166.327 12.776c2.914 0 5.469.74 7.666 2.22 2.197 1.479 3.878 3.586 5.043 6.32 1.211 2.69 1.816 5.85 1.816 9.482 0 3.63-.583 6.814-1.749 9.548-1.165 2.69-2.824 4.774-4.976 6.254-2.151 1.48-4.662 2.219-7.531 2.219-1.883 0-3.653-.404-5.312-1.21-1.659-.808-3.004-1.95-4.035-3.43h-.134v16.138h-11.163v-46.6h10.759v4.237h.135c1.031-1.659 2.376-2.936 4.034-3.833a11.53 11.53 0 015.447-1.345zm-3.564 8.473c-1.883 0-3.407.852-4.572 2.555-1.121 1.704-1.681 4.035-1.681 6.994 0 2.958.56 5.29 1.681 6.993 1.165 1.703 2.689 2.555 4.572 2.555 1.928 0 3.475-.852 4.64-2.555 1.166-1.748 1.748-4.08 1.748-6.993 0-2.914-.582-5.223-1.748-6.927-1.165-1.748-2.712-2.622-4.64-2.622zM184.305 47.877v-34.16h11.162v34.16h-11.162zm0-39.068V0h11.162v8.809h-11.162zM200.987 47.877V0h11.162v47.877h-11.162zM233.875 12.642c3.676 0 6.881.74 9.616 2.219 2.779 1.48 4.908 3.586 6.388 6.32 1.524 2.735 2.286 5.94 2.286 9.616 0 3.677-.762 6.882-2.286 9.616-1.48 2.735-3.609 4.842-6.388 6.321-2.735 1.48-5.94 2.22-9.616 2.22-3.676 0-6.904-.74-9.683-2.22-2.735-1.48-4.864-3.586-6.388-6.32-1.48-2.735-2.219-5.94-2.219-9.617 0-3.675.739-6.88 2.219-9.615 1.524-2.735 3.653-4.842 6.388-6.321 2.779-1.48 6.007-2.22 9.683-2.22zm0 8.472c-2.062 0-3.676.875-4.842 2.623-1.12 1.703-1.681 4.057-1.681 7.06 0 3.004.561 5.38 1.681 7.128 1.166 1.704 2.78 2.556 4.842 2.556s3.653-.852 4.774-2.556c1.166-1.748 1.748-4.124 1.748-7.127 0-3.004-.582-5.358-1.748-7.061-1.121-1.748-2.712-2.623-4.774-2.623zM272.512 39.606c.897 0 1.726-.112 2.488-.336v8.406c-.762.224-1.681.403-2.757.538-1.076.134-2.04.201-2.891.201-4.304 0-7.442-.896-9.415-2.69-1.927-1.793-2.891-4.684-2.891-8.674V21.854h-5.312v-8.136h5.312V4.505h11.162v9.213h6.456v8.136h-6.456v12.642c0 1.838.337 3.16 1.009 3.967.672.762 1.771 1.143 3.295 1.143z" fill="#000"/></svg>