<svg width="138" height="45" fill="none" xmlns="http://www.w3.org/2000/svg"><path d="M8.861 44.998c-.356 0-.704-.005-1.058-.013a14.778 14.778 0 01-2.187-.192 6.86 6.86 0 01-1.94-.644 6.326 6.326 0 01-1.634-1.196A6.258 6.258 0 01.847 41.31a6.755 6.755 0 01-.635-1.95c-.12-.729-.186-1.466-.195-2.206C.01 36.907 0 36.08 0 36.08V8.905s.01-.814.017-1.053c.01-.738.074-1.474.194-2.202.112-.68.326-1.34.636-1.955A6.32 6.32 0 012.035 2.05 6.515 6.515 0 013.676.847a6.79 6.79 0 011.935-.64C6.337.088 7.071.024 7.806.014L8.862 0h120.27l1.069.015c.729.009 1.456.073 2.175.191.68.116 1.339.334 1.955.645a6.566 6.566 0 012.827 2.847c.305.61.516 1.265.626 1.94.121.733.189 1.475.203 2.22.004.333.004.69.004 1.047.009.44.009.86.009 1.284v24.62c0 .428 0 .845-.009 1.266 0 .382 0 .733-.005 1.093-.013.731-.08 1.46-.2 2.18a6.76 6.76 0 01-.632 1.965 6.432 6.432 0 01-1.188 1.63 6.329 6.329 0 01-1.638 1.203 6.84 6.84 0 01-1.952.647c-.724.119-1.455.183-2.188.192a45.47 45.47 0 01-1.05.013l-1.269.002-119.008-.002z" fill="#000"/><path d="M27.966 22.854a5.845 5.845 0 01.754-2.799 5.808 5.808 0 012.004-2.085 5.938 5.938 0 00-2.037-1.825 5.903 5.903 0 00-2.634-.714c-1.965-.207-3.87 1.182-4.872 1.182-1.02 0-2.563-1.161-4.223-1.127a6.197 6.197 0 00-3.038.911 6.238 6.238 0 00-2.197 2.298c-2.263 3.94-.575 9.729 1.593 12.913 1.085 1.559 2.353 3.3 4.012 3.239 1.623-.068 2.23-1.04 4.189-1.04 1.941 0 2.51 1.04 4.202 1 1.742-.028 2.84-1.566 3.886-3.14a12.922 12.922 0 001.777-3.638 5.604 5.604 0 01-2.483-2.07c-.607-.92-.932-2-.933-3.105zM24.77 13.337a5.752 5.752 0 001.304-4.107 5.792 5.792 0 00-3.754 1.953 5.463 5.463 0 00-1.338 3.954 4.777 4.777 0 003.788-1.8zM48.487 30.898h-5.539l-1.33 3.949H39.27l5.247-14.609h2.438l5.247 14.609h-2.386l-1.33-3.949zm-4.965-1.822h4.39l-2.164-6.408h-.06l-2.166 6.408zM63.534 29.521c0 3.31-1.763 5.437-4.422 5.437a3.576 3.576 0 01-1.933-.45 3.6 3.6 0 01-1.4-1.414h-.051v5.276h-2.175V24.195h2.105v1.772h.04a3.768 3.768 0 011.428-1.41 3.743 3.743 0 011.946-.473c2.69 0 4.462 2.137 4.462 5.437zm-2.236 0c0-2.156-1.108-3.574-2.8-3.574-1.661 0-2.78 1.448-2.78 3.574 0 2.146 1.118 3.584 2.78 3.584 1.692 0 2.8-1.408 2.8-3.584zM75.196 29.521c0 3.31-1.762 5.437-4.421 5.437a3.576 3.576 0 01-1.934-.45 3.602 3.602 0 01-1.4-1.414h-.05v5.276h-2.175V24.195h2.105v1.772h.04a3.769 3.769 0 011.428-1.41 3.743 3.743 0 011.945-.473c2.69 0 4.462 2.137 4.462 5.437zm-2.235 0c0-2.156-1.109-3.574-2.8-3.574-1.662 0-2.78 1.448-2.78 3.574 0 2.146 1.118 3.584 2.78 3.584 1.691 0 2.8-1.408 2.8-3.584zM82.905 30.776c.161 1.449 1.561 2.4 3.474 2.4 1.834 0 3.152-.951 3.152-2.258 0-1.133-.795-1.812-2.678-2.278l-1.884-.456c-2.668-.648-3.907-1.902-3.907-3.938 0-2.52 2.185-4.252 5.288-4.252 3.07 0 5.176 1.731 5.247 4.252H89.4c-.131-1.458-1.33-2.338-3.082-2.338-1.752 0-2.951.89-2.951 2.186 0 1.033.766 1.64 2.639 2.106l1.6.395c2.983.71 4.222 1.913 4.222 4.05 0 2.733-2.166 4.445-5.61 4.445-3.224 0-5.4-1.672-5.54-4.314h2.226zM96.522 21.674v2.52h2.015v1.732h-2.015v5.871c0 .913.403 1.338 1.29 1.338.238-.005.477-.021.715-.051v1.721a5.94 5.94 0 01-1.208.101c-2.146 0-2.982-.81-2.982-2.875v-6.105h-1.54v-1.732h1.54v-2.52h2.185zM99.704 29.52c0-3.352 1.963-5.457 5.025-5.457 3.072 0 5.026 2.105 5.026 5.457 0 3.36-1.944 5.456-5.026 5.456-3.081 0-5.025-2.096-5.025-5.456zm7.835 0c0-2.3-1.048-3.656-2.81-3.656s-2.809 1.367-2.809 3.655c0 2.309 1.047 3.655 2.809 3.655 1.762 0 2.81-1.346 2.81-3.654zM111.547 24.195h2.075v1.813h.05a2.536 2.536 0 012.549-1.924c.25-.001.5.026.745.082v2.044a3.03 3.03 0 00-.977-.132 2.186 2.186 0 00-2.171 1.513 2.223 2.223 0 00-.096.938v6.317h-2.175v-10.65zM126.994 31.716c-.293 1.934-2.166 3.26-4.563 3.26-3.082 0-4.995-2.075-4.995-5.406 0-3.34 1.923-5.508 4.904-5.508 2.931 0 4.775 2.025 4.775 5.254v.75h-7.484v.131a2.786 2.786 0 00.748 2.155 2.75 2.75 0 002.103.862 2.386 2.386 0 001.47-.341c.441-.27.783-.676.976-1.157h2.066zm-7.352-3.179h5.297a2.571 2.571 0 00-.712-1.922 2.548 2.548 0 00-1.887-.781 2.672 2.672 0 00-1.91.787 2.714 2.714 0 00-.788 1.917zM43.248 9.24a3.075 3.075 0 012.464.963 3.108 3.108 0 01.821 2.525c0 2.243-1.205 3.532-3.285 3.532h-2.523V9.24h2.523zm-1.438 6.027h1.316a2.185 2.185 0 001.75-.711 2.21 2.21 0 00.553-1.813 2.224 2.224 0 00-.562-1.801 2.2 2.2 0 00-1.74-.71H41.81v5.035zM47.758 13.61a2.521 2.521 0 01.638-1.927 2.497 2.497 0 011.847-.822 2.485 2.485 0 011.847.822 2.511 2.511 0 01.638 1.927 2.522 2.522 0 01-.636 1.93 2.496 2.496 0 01-1.849.823 2.486 2.486 0 01-1.85-.823 2.513 2.513 0 01-.635-1.93zm3.9 0c0-1.148-.513-1.82-1.413-1.82-.904 0-1.413.672-1.413 1.82 0 1.157.509 1.824 1.413 1.824.9 0 1.413-.671 1.413-1.824zM59.336 16.258h-1.079l-1.089-3.901h-.082l-1.085 3.901h-1.068l-1.453-5.297h1.055l.944 4.042h.078l1.083-4.042h.998l1.084 4.042h.082l.94-4.042h1.04l-1.448 5.297zM62.004 10.965h1v.841h.079a1.572 1.572 0 011.572-.944 1.708 1.708 0 011.383.545 1.726 1.726 0 01.441 1.426v3.43h-1.04v-3.168c0-.85-.368-1.274-1.137-1.274a1.202 1.202 0 00-.936.38 1.216 1.216 0 00-.322.962v3.1h-1.04v-5.298zM68.137 8.895h1.04v7.365h-1.04V8.895zM70.623 13.61a2.522 2.522 0 01.638-1.927 2.497 2.497 0 011.847-.822 2.485 2.485 0 011.848.822 2.511 2.511 0 01.638 1.927 2.523 2.523 0 01-.636 1.93 2.498 2.498 0 01-1.85.823 2.486 2.486 0 01-1.849-.823 2.512 2.512 0 01-.636-1.93zm3.9 0c0-1.148-.513-1.82-1.413-1.82-.904 0-1.413.672-1.413 1.82 0 1.157.509 1.824 1.413 1.824.9 0 1.413-.671 1.413-1.824zM76.69 14.763c0-.954.706-1.504 1.96-1.582l1.427-.082v-.458c0-.559-.368-.875-1.078-.875-.581 0-.983.214-1.099.589h-1.007c.107-.91.958-1.494 2.154-1.494 1.32 0 2.066.662 2.066 1.78v3.62h-1.001v-.745h-.083a1.776 1.776 0 01-1.582.832 1.583 1.583 0 01-1.229-.4 1.599 1.599 0 01-.528-1.185zm3.387-.453v-.443l-1.287.083c-.725.049-1.054.297-1.054.764 0 .477.411.754.977.754a1.235 1.235 0 001.233-.678c.076-.15.12-.313.131-.48zM82.48 13.609c0-1.674.856-2.734 2.188-2.734a1.729 1.729 0 011.616.929h.077v-2.91h1.04v7.366h-.996v-.837h-.083a1.834 1.834 0 01-1.654.924c-1.341 0-2.188-1.06-2.188-2.738zm1.074 0c0 1.123.527 1.8 1.409 1.8.876 0 1.418-.686 1.418-1.796 0-1.104-.548-1.8-1.418-1.8-.876 0-1.409.681-1.409 1.796zM91.703 13.61a2.523 2.523 0 01.638-1.927 2.497 2.497 0 011.847-.822 2.486 2.486 0 011.847.822 2.513 2.513 0 01.638 1.927 2.524 2.524 0 01-.636 1.93 2.496 2.496 0 01-1.849.823 2.486 2.486 0 01-1.85-.823 2.514 2.514 0 01-.635-1.93zm3.9 0c0-1.148-.513-1.82-1.413-1.82-.904 0-1.413.672-1.413 1.82 0 1.157.509 1.824 1.413 1.824.9 0 1.413-.671 1.413-1.824zM98.069 10.965h1.001v.841h.078a1.572 1.572 0 011.572-.944 1.71 1.71 0 011.766 1.207c.076.247.096.508.058.764v3.43h-1.04v-3.168c0-.85-.368-1.274-1.137-1.274a1.201 1.201 0 00-.936.38 1.216 1.216 0 00-.322.962v3.1h-1.04v-5.298zM108.421 9.645v1.343h1.141v.88h-1.141v2.724c0 .555.227.798.745.798.132 0 .265-.009.396-.024v.87a3.399 3.399 0 01-.565.054c-1.157 0-1.618-.409-1.618-1.43v-2.992h-.836v-.88h.836V9.645h1.042zM110.984 8.895h1.031v2.919h.082a1.615 1.615 0 011.607-.949 1.72 1.72 0 011.369.558 1.752 1.752 0 01.445 1.417v3.42h-1.041v-3.163c0-.846-.392-1.274-1.126-1.274a1.226 1.226 0 00-.975.361 1.244 1.244 0 00-.352.982v3.094h-1.04V8.895zM121.583 14.83a2.145 2.145 0 01-.865 1.184c-.417.28-.919.404-1.418.35a2.384 2.384 0 01-1.847-.802 2.412 2.412 0 01-.588-1.933 2.447 2.447 0 011.419-2.556 2.42 2.42 0 011.011-.212c1.466 0 2.351 1.007 2.351 2.67v.366h-3.721v.058a1.4 1.4 0 001.403 1.518 1.257 1.257 0 001.254-.642h1.001zm-3.658-1.707h2.661a1.28 1.28 0 00-.779-1.274 1.268 1.268 0 00-.518-.098 1.343 1.343 0 00-1.265.845 1.344 1.344 0 00-.099.527z" fill="#fff"/></svg>
