<svg width="33" height="37" fill="none" xmlns="http://www.w3.org/2000/svg"><path fill-rule="evenodd" clip-rule="evenodd" d="M21.835 21.89L33 37H0V0h17.352c.604 0 1.156.023 1.664.07 5.774.453 10.319 5.298 10.319 11.207 0 4.905-3.132 9.077-7.5 10.612z" fill="#157EFF"/><path fill-rule="evenodd" clip-rule="evenodd" d="M21.491 37H0V0l32.77 37H21.492z" fill="#157EFF"/><path fill-rule="evenodd" clip-rule="evenodd" d="M33 37H.002L16.386 11.16 33 37z" fill="#00BDFF"/><path fill-rule="evenodd" clip-rule="evenodd" d="M0 21.41V0h9.21l13.76 21.409L0 21.41z" fill="#1560FA"/><path fill-rule="evenodd" clip-rule="evenodd" d="M9.885 21.415l6.498-10.254 6.59 10.254H9.885z" fill="#00EFE9"/><path fill-rule="evenodd" clip-rule="evenodd" d="M33 37H20.738L16.385 11.16 32.999 37z" fill="#157EFF" fill-opacity=".5"/></svg>
