<svg width="33" height="37" viewBox="0 0 33 37" fill="none" xmlns="http://www.w3.org/2000/svg">
<path d="M0 36.846V0H18.5917C21.0706 0 29.4368 2.30287 29.4368 10.7467C29.4368 17.5018 24.6921 20.6429 22.3681 21.4105L32.5354 36.846H0Z" fill="#00EFE9"/>
<mask id="mask0" mask-type="alpha" maskUnits="userSpaceOnUse" x="0" y="0" width="33" height="37">
<path d="M0 36.846V0H18.5917C21.0706 0 29.4368 2.30287 29.4368 10.7467C29.4368 17.5018 24.6921 20.6429 22.3681 21.4105L32.5354 36.846H0Z" fill="#0F1627"/>
</mask>
<g mask="url(#mask0)">
<path d="M12 37L-5.49774e-05 37L-5.58676e-05 13.7318L12 6.5L12 37Z" fill="#BFEEFF"/>
<path d="M12 37L32.4569 37.1547L12 6.5L12 37Z" fill="#0A9DFF"/>
<path d="M12 37L32 37L12 18L12 37Z" fill="#157EFF"/>
<path d="M12 37L32 37L12 28L12 37Z" fill="#1560FA"/>
<path d="M12.2012 36.846L0.000335803 36.846L0.000335516 21.9084L12.2012 17.925L12.2012 36.846Z" fill="black"/>
<path d="M12.2012 36.846L0.000335803 36.846L0.000335516 21.9084L12.2012 17.925L12.2012 36.846Z" fill="#70D9FF"/>
<path d="M12.2012 36.8461L0.000333386 36.8461L0.000333697 29.8752L12.2012 27.8835L12.2012 36.8461Z" fill="black"/>
<path d="M12.2012 36.8461L0.000333386 36.8461L0.000333697 29.8752L12.2012 27.8835L12.2012 36.8461Z" fill="#48B6FF"/>
<path opacity="0.3" d="M12 18L0 22V21.5L12 17.5L32 37L12 18Z" fill="black"/>
<path opacity="0.3" d="M12 28L0 30V29.5L12 27.5L32 37L12 28Z" fill="black"/>
</g>
</svg>
