<svg width="33" height="37" viewBox="0 0 33 37" fill="none" xmlns="http://www.w3.org/2000/svg">
<path d="M0 36.846V0H18.5917C21.0706 0 29.4368 2.30287 29.4368 10.7467C29.4368 17.5018 24.6921 20.6429 22.3681 21.4105L32.5354 36.846H0Z" fill="#157EFF"/>
<mask id="mask0" mask-type="alpha" maskUnits="userSpaceOnUse" x="0" y="0" width="33" height="37">
<path d="M0 36.846V0H18.5917C21.0706 0 29.4368 2.30287 29.4368 10.7467C29.4368 17.5018 24.6921 20.6429 22.3681 21.4105L32.5354 36.846H0Z" fill="#632BBB"/>
</mask>
<g mask="url(#mask0)">
<rect width="7" height="7" transform="matrix(1 0 0 -1 0 16)" fill="#35FFF9"/>
<rect opacity="0.4" width="7" height="7" transform="matrix(1 0 0 -1 7 23)" fill="#00BDFF"/>
<rect opacity="0.6" width="7" height="7" transform="matrix(1 0 0 -1 7 16)" fill="#00BDFF"/>
<rect width="7" height="7" transform="matrix(1 0 0 -1 14 16)" fill="#0A9DFF"/>
<rect opacity="0.9" y="37" width="7" height="7" transform="rotate(-90 0 37)" fill="#35FFF9"/>
<rect y="30" width="7" height="7" transform="rotate(-90 0 30)" fill="#00BDFF"/>
<rect x="7" y="30" width="7" height="7" transform="rotate(-90 7 30)" fill="#35FFF9"/>
<rect x="14" y="30" width="7" height="7" transform="rotate(-90 14 30)" fill="#0A9DFF"/>
<rect opacity="0.5" x="14" y="23" width="7" height="7" transform="rotate(-90 14 23)" fill="#0A9DFF"/>
<rect y="23" width="7" height="7" transform="rotate(-90 0 23)" fill="#0A9DFF"/>
<rect y="9" width="7" height="7" transform="rotate(-90 0 9)" fill="#0A9DFF"/>
<rect opacity="0.2" x="7" y="9" width="7" height="7" transform="rotate(-90 7 9)" fill="#0A9DFF"/>
<rect opacity="0.3" x="14" y="9" width="7" height="7" transform="rotate(-90 14 9)" fill="#0A9DFF"/>
<rect opacity="0.3" x="21" y="16" width="7" height="7" transform="rotate(-90 21 16)" fill="#0A9DFF"/>
<rect x="7" y="37" width="7" height="7" transform="rotate(-90 7 37)" fill="#00BDFF"/>
<rect opacity="0.5" x="14" y="37" width="7" height="7" transform="rotate(-90 14 37)" fill="#00BDFF"/>
<rect opacity="0.5" x="21" y="37" width="7" height="7" transform="rotate(-90 21 37)" fill="#0A9DFF"/>
</g>
</svg>
