<svg width="33" height="36" fill="none" xmlns="http://www.w3.org/2000/svg"><path d="M22.44 21.374L31.17 35H2V1h15.827c.287 0 1.373.033 1.995.115h.004c4.855.619 8.619 4.79 8.619 9.857 0 3.95-2.287 7.36-5.6 8.963l-1.014.49.608.95z" stroke="#0049FF" stroke-width="2"/><path fill="#0049FF" d="M7.895 1.157L9.58.081l22.091 34.41-1.685 1.076z"/><path d="M16.08 13.675l-.35-3.158L1.035 33.59l.781.5.782.499L16.08 13.675z" fill="#0049FF"/><path fill="#0049FF" d="M2 20h20.23v2H2z"/><path fill="#0049FF" d="M15 34.38V12h2v22.38z"/></svg>
