<svg width="46" height="35" viewBox="0 0 46 35" fill="none" xmlns="http://www.w3.org/2000/svg">
<mask id="mask0" mask-type="alpha" maskUnits="userSpaceOnUse" x="0" y="0" width="46" height="35">
<rect x="0.236328" y="0.186279" width="45" height="34" fill="#C4C4C4"/>
</mask>
<g mask="url(#mask0)">
<mask id="mask1" mask-type="alpha" maskUnits="userSpaceOnUse" x="-3" y="-10" width="26" height="54">
<path d="M22.7773 17.1862L-2.28448 43.5497L-2.28448 -9.17718L22.7773 17.1862Z" fill="#C4C4C4"/>
</mask>
<g mask="url(#mask1)">
<ellipse cx="22.6948" cy="17.1862" rx="22.3315" ry="23.496" fill="#69ECE7"/>
<ellipse cx="22.6952" cy="17.1865" rx="18.6639" ry="19.6371" fill="#51BBF9"/>
<ellipse cx="22.6952" cy="17.1863" rx="14.7518" ry="15.5211" fill="#377FF5"/>
<ellipse cx="22.6968" cy="17.1865" rx="10.5952" ry="11.1477" fill="#1560FA"/>
<ellipse cx="22.6948" cy="17.1862" rx="22.3315" ry="23.496" fill="#69ECE7"/>
<ellipse cx="22.6952" cy="17.1865" rx="18.6639" ry="19.6371" fill="#51BBF9"/>
<ellipse cx="22.6952" cy="17.1863" rx="14.7518" ry="15.5211" fill="#377FF5"/>
<ellipse cx="22.6968" cy="17.1865" rx="10.5952" ry="11.1477" fill="#1560FA"/>
</g>
<mask id="mask2" mask-type="alpha" maskUnits="userSpaceOnUse" x="22" y="-10" width="26" height="54">
<path d="M22.6953 17.1862L47.7571 43.5497L47.7571 -9.17718L22.6953 17.1862Z" fill="#C4C4C4"/>
</mask>
<g mask="url(#mask2)">
<ellipse rx="22.3315" ry="23.496" transform="matrix(-1 0 0 1 22.7779 17.1862)" fill="#69ECE7"/>
<ellipse rx="18.6639" ry="19.6371" transform="matrix(-1 0 0 1 22.7775 17.1865)" fill="#51BBF9"/>
<ellipse rx="14.7518" ry="15.5211" transform="matrix(-1 0 0 1 22.7794 17.1863)" fill="#377FF5"/>
<ellipse rx="10.5952" ry="11.1477" transform="matrix(-1 0 0 1 22.7759 17.1865)" fill="#1560FA"/>
<ellipse rx="22.3315" ry="23.496" transform="matrix(-1 0 0 1 22.7779 17.1862)" fill="#69ECE7"/>
<ellipse rx="18.6639" ry="19.6371" transform="matrix(-1 0 0 1 22.7775 17.1865)" fill="#51BBF9"/>
<ellipse rx="14.7518" ry="15.5211" transform="matrix(-1 0 0 1 22.7794 17.1863)" fill="#377FF5"/>
<ellipse rx="10.5952" ry="11.1477" transform="matrix(-1 0 0 1 22.7759 17.1865)" fill="#1560FA"/>
</g>
</g>
</svg>
